<svg width="24" height="24" viewBox="0 0 24 24" fill="none" xmlns="http://www.w3.org/2000/svg">
<path d="M6.34315 17.6569L6.87348 18.1872C7.16637 17.8943 7.16637 17.4194 6.87348 17.1265L6.34315 17.6569ZM4 20L3.46967 19.4697C3.25517 19.6842 3.191 20.0068 3.30709 20.287C3.42318 20.5673 3.69665 20.75 4 20.75V20ZM19.25 12C19.25 16.0041 16.0041 19.25 12 19.25V20.75C16.8325 20.75 20.75 16.8325 20.75 12H19.25ZM12 4.75C16.0041 4.75 19.25 7.99594 19.25 12H20.75C20.75 7.16751 16.8325 3.25 12 3.25V4.75ZM4.75 12C4.75 7.99594 7.99594 4.75 12 4.75V3.25C7.16751 3.25 3.25 7.16751 3.25 12H4.75ZM6.87348 17.1265C5.56066 15.8137 4.75 14.0022 4.75 12H3.25C3.25 14.416 4.2302 16.6046 5.81282 18.1872L6.87348 17.1265ZM4.53033 20.5303L6.87348 18.1872L5.81282 17.1265L3.46967 19.4697L4.53033 20.5303ZM12 19.25H4V20.75H12V19.25Z" fill="#78787B"/>
<path d="M7.44443 12.8315C7.60888 12.9414 7.80222 13 8 13C8.26522 13 8.51957 12.8946 8.70711 12.7071C8.89464 12.5196 9 12.2652 9 12C9 11.8022 8.94135 11.6089 8.83147 11.4444C8.72159 11.28 8.56541 11.1518 8.38268 11.0761C8.19996 11.0004 7.99889 10.9806 7.80491 11.0192C7.61093 11.0578 7.43275 11.153 7.29289 11.2929C7.15304 11.4327 7.0578 11.6109 7.01922 11.8049C6.98063 11.9989 7.00043 12.2 7.07612 12.3827C7.15181 12.5654 7.27998 12.7216 7.44443 12.8315Z" fill="#78787B"/>
<path d="M11.4444 12.8315C11.6089 12.9414 11.8022 13 12 13C12.2652 13 12.5196 12.8946 12.7071 12.7071C12.8946 12.5196 13 12.2652 13 12C13 11.8022 12.9414 11.6089 12.8315 11.4444C12.7216 11.28 12.5654 11.1518 12.3827 11.0761C12.2 11.0004 11.9989 10.9806 11.8049 11.0192C11.6109 11.0578 11.4327 11.153 11.2929 11.2929C11.153 11.4327 11.0578 11.6109 11.0192 11.8049C10.9806 11.9989 11.0004 12.2 11.0761 12.3827C11.1518 12.5654 11.28 12.7216 11.4444 12.8315Z" fill="#78787B"/>
<path d="M15.4444 12.8315C15.6089 12.9414 15.8022 13 16 13C16.2652 13 16.5196 12.8946 16.7071 12.7071C16.8946 12.5196 17 12.2652 17 12C17 11.8022 16.9414 11.6089 16.8315 11.4444C16.7216 11.28 16.5654 11.1518 16.3827 11.0761C16.2 11.0004 15.9989 10.9806 15.8049 11.0192C15.6109 11.0578 15.4327 11.153 15.2929 11.2929C15.153 11.4327 15.0578 11.6109 15.0192 11.8049C14.9806 11.9989 15.0004 12.2 15.0761 12.3827C15.1518 12.5654 15.28 12.7216 15.4444 12.8315Z" fill="#78787B"/>
</svg>
