<svg width="24" height="24" viewBox="0 0 24 24" fill="none" xmlns="http://www.w3.org/2000/svg">
<path d="M4 19V11C4 10.3705 4.29639 9.77771 4.8 9.4L10.8 4.9C11.5111 4.36667 12.4889 4.36667 13.2 4.9L19.2 9.4C19.7036 9.77771 20 10.3705 20 11V19C20 20.1046 19.1046 21 18 21H6C4.89543 21 4 20.1046 4 19Z" stroke="#78787B" stroke-width="1.5" stroke-linecap="round" stroke-linejoin="round"/>
<path d="M15 21V21.75C15.4142 21.75 15.75 21.4142 15.75 21H15ZM9 21H8.25C8.25 21.4142 8.58579 21.75 9 21.75V21ZM11 13.75H13V12.25H11V13.75ZM14.25 15V21H15.75V15H14.25ZM15 20.25H9V21.75H15V20.25ZM9.75 21V15H8.25V21H9.75ZM13 13.75C13.6904 13.75 14.25 14.3096 14.25 15H15.75C15.75 13.4812 14.5188 12.25 13 12.25V13.75ZM11 12.25C9.48122 12.25 8.25 13.4812 8.25 15H9.75C9.75 14.3096 10.3096 13.75 11 13.75V12.25Z" fill="#78787B"/>
</svg>
