<svg width="90" height="100" viewBox="0 0 90 100" fill="none" xmlns="http://www.w3.org/2000/svg">
<path d="M75 54.9163V41.6663C74.994 35.7627 72.899 30.0516 69.0859 25.5446C65.2728 21.0375 59.9878 18.0253 54.1667 17.0413V12.4997C54.1667 11.3946 53.7277 10.3348 52.9463 9.5534C52.1649 8.77199 51.1051 8.33301 50 8.33301C48.895 8.33301 47.8351 8.77199 47.0537 9.5534C46.2723 10.3348 45.8334 11.3946 45.8334 12.4997V17.0413C40.0123 18.0253 34.7272 21.0375 30.9141 25.5446C27.101 30.0516 25.006 35.7627 25 41.6663V54.9163C22.5686 55.776 20.4625 57.3666 18.9706 59.4702C17.4787 61.5738 16.6739 64.0874 16.6667 66.6663V74.9997C16.6667 76.1047 17.1057 77.1646 17.8871 77.946C18.6685 78.7274 19.7283 79.1663 20.8334 79.1663H33.9167C34.8762 82.697 36.9709 85.8139 39.8775 88.0361C42.7842 90.2582 46.3413 91.4622 50 91.4622C53.6588 91.4622 57.2159 90.2582 60.1225 88.0361C63.0292 85.8139 65.1238 82.697 66.0834 79.1663H79.1667C80.2718 79.1663 81.3316 78.7274 82.113 77.946C82.8944 77.1646 83.3334 76.1047 83.3334 74.9997V66.6663C83.3261 64.0874 82.5214 61.5738 81.0294 59.4702C79.5375 57.3666 77.4315 55.776 75 54.9163V54.9163ZM33.3334 41.6663C33.3334 37.2461 35.0893 33.0068 38.2149 29.8812C41.3405 26.7556 45.5797 24.9997 50 24.9997C54.4203 24.9997 58.6595 26.7556 61.7851 29.8812C64.9107 33.0068 66.6667 37.2461 66.6667 41.6663V54.1663H33.3334V41.6663ZM50 83.333C48.5457 83.3242 47.1191 82.935 45.8618 82.2041C44.6046 81.4731 43.5605 80.4258 42.8334 79.1663H57.1667C56.4396 80.4258 55.3955 81.4731 54.1382 82.2041C52.881 82.935 51.4543 83.3242 50 83.333ZM75 70.833H25V66.6663C25 65.5613 25.439 64.5015 26.2204 63.7201C27.0018 62.9387 28.0616 62.4997 29.1667 62.4997H70.8334C71.9384 62.4997 72.9982 62.9387 73.7796 63.7201C74.561 64.5015 75 65.5613 75 66.6663V70.833Z" fill="#202021"/>
</svg>
