<svg width="24" height="24" viewBox="0 0 24 24" fill="none" xmlns="http://www.w3.org/2000/svg">
<path d="M19 18H5V16C5 14.8954 5.89543 14 7 14H17C18.1046 14 19 14.8954 19 16V18Z" stroke="#202021" stroke-width="1.5" stroke-linecap="round" stroke-linejoin="round"/>
<path d="M17 14H7V10C7 7.23858 9.23858 5 12 5C14.7614 5 17 7.23858 17 10V14Z" stroke="#202021" stroke-width="1.5" stroke-linecap="round" stroke-linejoin="round"/>
<path d="M9 18C9 18.7956 9.31607 19.5587 9.87868 20.1213C10.4413 20.6839 11.2044 21 12 21C12.7956 21 13.5587 20.6839 14.1213 20.1213C14.6839 19.5587 15 18.7956 15 18L12 18L9 18Z" stroke="#202021" stroke-width="1.5" stroke-linecap="round" stroke-linejoin="round"/>
<path d="M12 5V3" stroke="#202021" stroke-width="1.5" stroke-linecap="round" stroke-linejoin="round"/>
</svg>
