<svg width="100" height="100" viewBox="0 0 100 100" fill="none" xmlns="http://www.w3.org/2000/svg">
<path d="M50 58.333C50.8241 58.333 51.6297 58.0886 52.3149 57.6308C53.0001 57.173 53.5341 56.5222 53.8495 55.7609C54.1648 54.9995 54.2474 54.1617 54.0866 53.3535C53.9258 52.5452 53.529 51.8028 52.9463 51.2201C52.3635 50.6373 51.6211 50.2405 50.8129 50.0797C50.0046 49.919 49.1668 50.0015 48.4055 50.3168C47.6441 50.6322 46.9934 51.1663 46.5355 51.8515C46.0777 52.5367 45.8333 53.3423 45.8333 54.1663C45.8333 55.2714 46.2723 56.3312 47.0537 57.1126C47.8351 57.894 48.8949 58.333 50 58.333ZM70.8333 58.333C71.6574 58.333 72.463 58.0886 73.1482 57.6308C73.8334 57.173 74.3675 56.5222 74.6828 55.7609C74.9982 54.9995 75.0807 54.1617 74.9199 53.3535C74.7592 52.5452 74.3623 51.8028 73.7796 51.2201C73.1969 50.6373 72.4545 50.2405 71.6462 50.0797C70.8379 49.919 70.0002 50.0015 69.2388 50.3168C68.4774 50.6322 67.8267 51.1663 67.3689 51.8515C66.911 52.5367 66.6667 53.3423 66.6667 54.1663C66.6667 55.2714 67.1056 56.3312 67.887 57.1126C68.6684 57.894 69.7282 58.333 70.8333 58.333ZM50 74.9997C50.8241 74.9997 51.6297 74.7553 52.3149 74.2975C53.0001 73.8396 53.5341 73.1889 53.8495 72.4275C54.1648 71.6662 54.2474 70.8284 54.0866 70.0201C53.9258 69.2119 53.529 68.4694 52.9463 67.8867C52.3635 67.304 51.6211 66.9072 50.8129 66.7464C50.0046 66.5856 49.1668 66.6681 48.4055 66.9835C47.6441 67.2989 46.9934 67.8329 46.5355 68.5181C46.0777 69.2033 45.8333 70.0089 45.8333 70.833C45.8333 71.9381 46.2723 72.9979 47.0537 73.7793C47.8351 74.5607 48.8949 74.9997 50 74.9997ZM70.8333 74.9997C71.6574 74.9997 72.463 74.7553 73.1482 74.2975C73.8334 73.8396 74.3675 73.1889 74.6828 72.4275C74.9982 71.6662 75.0807 70.8284 74.9199 70.0201C74.7592 69.2119 74.3623 68.4694 73.7796 67.8867C73.1969 67.304 72.4545 66.9072 71.6462 66.7464C70.8379 66.5856 70.0002 66.6681 69.2388 66.9835C68.4774 67.2989 67.8267 67.8329 67.3689 68.5181C66.911 69.2033 66.6667 70.0089 66.6667 70.833C66.6667 71.9381 67.1056 72.9979 67.887 73.7793C68.6684 74.5607 69.7282 74.9997 70.8333 74.9997ZM29.1666 58.333C29.9907 58.333 30.7963 58.0886 31.4815 57.6308C32.1667 57.173 32.7008 56.5222 33.0161 55.7609C33.3315 54.9995 33.414 54.1617 33.2533 53.3535C33.0925 52.5452 32.6956 51.8028 32.1129 51.2201C31.5302 50.6373 30.7878 50.2405 29.9795 50.0797C29.1713 49.919 28.3335 50.0015 27.5721 50.3168C26.8108 50.6322 26.16 51.1663 25.7022 51.8515C25.2444 52.5367 25 53.3423 25 54.1663C25 55.2714 25.439 56.3312 26.2204 57.1126C27.0018 57.894 28.0616 58.333 29.1666 58.333ZM79.1667 16.6663H75V12.4997C75 11.3946 74.561 10.3348 73.7796 9.5534C72.9982 8.77199 71.9384 8.33301 70.8333 8.33301C69.7282 8.33301 68.6684 8.77199 67.887 9.5534C67.1056 10.3348 66.6667 11.3946 66.6667 12.4997V16.6663H33.3333V12.4997C33.3333 11.3946 32.8943 10.3348 32.1129 9.5534C31.3315 8.77199 30.2717 8.33301 29.1666 8.33301C28.0616 8.33301 27.0018 8.77199 26.2204 9.5534C25.439 10.3348 25 11.3946 25 12.4997V16.6663H20.8333C17.5181 16.6663 14.3387 17.9833 11.9945 20.3275C9.65027 22.6717 8.33331 25.8511 8.33331 29.1663V79.1663C8.33331 82.4816 9.65027 85.661 11.9945 88.0052C14.3387 90.3494 17.5181 91.6663 20.8333 91.6663H79.1667C82.4819 91.6663 85.6613 90.3494 88.0055 88.0052C90.3497 85.661 91.6667 82.4816 91.6667 79.1663V29.1663C91.6667 25.8511 90.3497 22.6717 88.0055 20.3275C85.6613 17.9833 82.4819 16.6663 79.1667 16.6663V16.6663ZM83.3333 79.1663C83.3333 80.2714 82.8943 81.3312 82.1129 82.1126C81.3315 82.894 80.2717 83.333 79.1667 83.333H20.8333C19.7282 83.333 18.6684 82.894 17.887 82.1126C17.1056 81.3312 16.6666 80.2714 16.6666 79.1663V41.6663H83.3333V79.1663ZM83.3333 33.333H16.6666V29.1663C16.6666 28.0613 17.1056 27.0015 17.887 26.2201C18.6684 25.4387 19.7282 24.9997 20.8333 24.9997H79.1667C80.2717 24.9997 81.3315 25.4387 82.1129 26.2201C82.8943 27.0015 83.3333 28.0613 83.3333 29.1663V33.333ZM29.1666 74.9997C29.9907 74.9997 30.7963 74.7553 31.4815 74.2975C32.1667 73.8396 32.7008 73.1889 33.0161 72.4275C33.3315 71.6662 33.414 70.8284 33.2533 70.0201C33.0925 69.2119 32.6956 68.4694 32.1129 67.8867C31.5302 67.304 30.7878 66.9072 29.9795 66.7464C29.1713 66.5856 28.3335 66.6681 27.5721 66.9835C26.8108 67.2989 26.16 67.8329 25.7022 68.5181C25.2444 69.2033 25 70.0089 25 70.833C25 71.9381 25.439 72.9979 26.2204 73.7793C27.0018 74.5607 28.0616 74.9997 29.1666 74.9997Z" fill="#202021"/>
</svg>
