<svg width="24" height="24" viewBox="0 0 24 24" fill="none" xmlns="http://www.w3.org/2000/svg">
<path d="M7.99999 11C7.80221 11 7.60887 11.0586 7.44442 11.1685C7.27997 11.2784 7.1518 11.4346 7.07611 11.6173C7.00042 11.8 6.98062 12.0011 7.0192 12.1951C7.05779 12.3891 7.15303 12.5673 7.29288 12.7071C7.43273 12.847 7.61092 12.9422 7.8049 12.9808C7.99888 13.0194 8.19995 12.9996 8.38267 12.9239C8.5654 12.8482 8.72158 12.72 8.83146 12.5556C8.94134 12.3911 8.99999 12.1978 8.99999 12C8.99999 11.7348 8.89463 11.4804 8.70709 11.2929C8.51956 11.1054 8.2652 11 7.99999 11ZM12 11C11.8022 11 11.6089 11.0586 11.4444 11.1685C11.28 11.2784 11.1518 11.4346 11.0761 11.6173C11.0004 11.8 10.9806 12.0011 11.0192 12.1951C11.0578 12.3891 11.153 12.5673 11.2929 12.7071C11.4327 12.847 11.6109 12.9422 11.8049 12.9808C11.9989 13.0194 12.1999 12.9996 12.3827 12.9239C12.5654 12.8482 12.7216 12.72 12.8315 12.5556C12.9413 12.3911 13 12.1978 13 12C13 11.7348 12.8946 11.4804 12.7071 11.2929C12.5196 11.1054 12.2652 11 12 11ZM16 11C15.8022 11 15.6089 11.0586 15.4444 11.1685C15.28 11.2784 15.1518 11.4346 15.0761 11.6173C15.0004 11.8 14.9806 12.0011 15.0192 12.1951C15.0578 12.3891 15.153 12.5673 15.2929 12.7071C15.4327 12.847 15.6109 12.9422 15.8049 12.9808C15.9989 13.0194 16.1999 12.9996 16.3827 12.9239C16.5654 12.8482 16.7216 12.72 16.8315 12.5556C16.9413 12.3911 17 12.1978 17 12C17 11.7348 16.8946 11.4804 16.7071 11.2929C16.5196 11.1054 16.2652 11 16 11ZM12 2C10.6868 2 9.38641 2.25866 8.17315 2.7612C6.9599 3.26375 5.85751 4.00035 4.92892 4.92893C3.05356 6.8043 1.99999 9.34784 1.99999 12C1.99125 14.3091 2.79078 16.5485 4.25999 18.33L2.25999 20.33C2.12123 20.4706 2.02723 20.6492 1.98986 20.8432C1.95249 21.0372 1.97341 21.2379 2.04999 21.42C2.13305 21.5999 2.26769 21.7511 2.43683 21.8544C2.60598 21.9577 2.80199 22.0083 2.99999 22H12C14.6522 22 17.1957 20.9464 19.0711 19.0711C20.9464 17.1957 22 14.6522 22 12C22 9.34784 20.9464 6.8043 19.0711 4.92893C17.1957 3.05357 14.6522 2 12 2ZM12 20H5.40999L6.33999 19.07C6.43448 18.9774 6.50965 18.8669 6.56114 18.7451C6.61264 18.6232 6.63944 18.4923 6.63999 18.36C6.63623 18.0962 6.5284 17.8446 6.33999 17.66C5.03057 16.352 4.21516 14.6305 4.03268 12.7888C3.8502 10.947 4.31193 9.09901 5.33922 7.55952C6.3665 6.02004 7.89578 4.88436 9.6665 4.34597C11.4372 3.80759 13.3398 3.8998 15.0502 4.60691C16.7606 5.31402 18.1728 6.59227 19.0464 8.22389C19.92 9.85551 20.2009 11.7395 19.8411 13.555C19.4814 15.3705 18.5033 17.005 17.0735 18.1802C15.6438 19.3554 13.8508 19.9985 12 20Z" fill="#202021"/>
</svg>
