<svg width="50" height="50" viewBox="0 0 50 50" fill="none" xmlns="http://www.w3.org/2000/svg">
<path d="M42.0346 11.0093C39.8256 8.88489 36.8975 7.58829 33.779 7.35369C30.6606 7.11908 27.5575 9.23926 25.0303 11.0073C22.3789 9.11567 19.0788 6.98058 15.7944 7.32944C12.5101 7.67829 9.48558 9.20784 7.32989 11.6101C5.17421 14.0123 4.04749 17.1088 4.17665 20.276C4.3058 23.4432 5.68123 26.4458 8.02596 28.6791L20.9667 41.112C22.0504 42.135 23.5099 42.7084 25.0303 42.7084C26.5507 42.7084 28.0102 42.135 29.0938 41.112L42.0346 28.6791C44.4677 26.331 45.8333 23.1549 45.8333 19.8442C45.8333 16.5336 44.4677 13.3574 42.0346 11.0093Z" fill="#FF6060"/>
</svg>
