<svg width="24" height="24" viewBox="0 0 24 24" fill="none" xmlns="http://www.w3.org/2000/svg">
<path d="M20 7.99952L14 2.73952C13.45 2.24756 12.7379 1.97559 12 1.97559C11.262 1.97559 10.55 2.24756 9.99997 2.73952L3.99997 7.99952C3.68234 8.28359 3.42887 8.63207 3.25644 9.02176C3.08402 9.41145 2.99659 9.8334 2.99997 10.2595V18.9995C2.99997 19.7952 3.31604 20.5582 3.87865 21.1208C4.44126 21.6834 5.20432 21.9995 5.99997 21.9995H18C18.7956 21.9995 19.5587 21.6834 20.1213 21.1208C20.6839 20.5582 21 19.7952 21 18.9995V10.2495C21.0019 9.82508 20.9138 9.40506 20.7414 9.0172C20.5691 8.62934 20.3163 8.28247 20 7.99952ZM14 19.9995H9.99997V14.9995C9.99997 14.7343 10.1053 14.4799 10.2929 14.2924C10.4804 14.1049 10.7348 13.9995 11 13.9995H13C13.2652 13.9995 13.5195 14.1049 13.7071 14.2924C13.8946 14.4799 14 14.7343 14 14.9995V19.9995ZM19 18.9995C19 19.2647 18.8946 19.5191 18.7071 19.7066C18.5195 19.8942 18.2652 19.9995 18 19.9995H16V14.9995C16 14.2039 15.6839 13.4408 15.1213 12.8782C14.5587 12.3156 13.7956 11.9995 13 11.9995H11C10.2043 11.9995 9.44126 12.3156 8.87865 12.8782C8.31604 13.4408 7.99997 14.2039 7.99997 14.9995V19.9995H5.99997C5.73476 19.9995 5.4804 19.8942 5.29287 19.7066C5.10533 19.5191 4.99997 19.2647 4.99997 18.9995V10.2495C5.00015 10.1075 5.03057 9.96721 5.08919 9.8379C5.14781 9.70858 5.2333 9.59323 5.33997 9.49952L11.34 4.24952C11.5225 4.0892 11.7571 4.00078 12 4.00078C12.2429 4.00078 12.4775 4.0892 12.66 4.24952L18.66 9.49952C18.7666 9.59323 18.8521 9.70858 18.9108 9.8379C18.9694 9.96721 18.9998 10.1075 19 10.2495V18.9995Z" fill="#202021"/>
</svg>
