<svg width="24" height="24" viewBox="0 0 24 24" fill="none" xmlns="http://www.w3.org/2000/svg">
<path d="M8.45999 12.71L14.12 18.36C14.213 18.4537 14.3236 18.5281 14.4454 18.5789C14.5673 18.6297 14.698 18.6558 14.83 18.6558C14.962 18.6558 15.0927 18.6297 15.2146 18.5789C15.3364 18.5281 15.447 18.4537 15.54 18.36C15.7262 18.1726 15.8308 17.9192 15.8308 17.655C15.8308 17.3908 15.7262 17.1374 15.54 16.95L10.59 11.95L15.54 7C15.7262 6.81264 15.8308 6.55919 15.8308 6.295C15.8308 6.03082 15.7262 5.77736 15.54 5.59C15.4474 5.49551 15.3369 5.42034 15.2151 5.36885C15.0932 5.31735 14.9623 5.29055 14.83 5.29C14.6977 5.29055 14.5668 5.31735 14.4449 5.36885C14.323 5.42034 14.2126 5.49551 14.12 5.59L8.45999 11.24C8.35848 11.3336 8.27747 11.4473 8.22207 11.5738C8.16666 11.7003 8.13805 11.8369 8.13805 11.975C8.13805 12.1131 8.16666 12.2497 8.22207 12.3762C8.27747 12.5027 8.35848 12.6164 8.45999 12.71V12.71Z" fill="#202021"/>
</svg>
