<svg width="100" height="100" viewBox="0 0 100 100" fill="none" xmlns="http://www.w3.org/2000/svg">
<path d="M35.3799 47.0417L58.9632 23.5001C59.3505 23.1095 59.8114 22.7996 60.3191 22.588C60.8269 22.3765 61.3715 22.2676 61.9215 22.2676C62.4716 22.2676 63.0162 22.3765 63.5239 22.588C64.0317 22.7996 64.4925 23.1095 64.8799 23.5001C65.6559 24.2807 66.0915 25.3368 66.0915 26.4376C66.0915 27.5383 65.6559 28.5944 64.8799 29.3751L44.2549 50.2084L64.8799 70.8334C65.6559 71.6141 66.0915 72.6701 66.0915 73.7709C66.0915 74.8717 65.6559 75.9277 64.8799 76.7084C64.494 77.1021 64.0338 77.4153 63.526 77.6299C63.0181 77.8445 62.4728 77.9561 61.9215 77.9584C61.3702 77.9561 60.8249 77.8445 60.3171 77.6299C59.8093 77.4153 59.3491 77.1021 58.9632 76.7084L35.3799 53.1667C34.9569 52.7766 34.6194 52.303 34.3885 51.7759C34.1577 51.2489 34.0385 50.6797 34.0385 50.1042C34.0385 49.5288 34.1577 48.9596 34.3885 48.4325C34.6194 47.9055 34.9569 47.4319 35.3799 47.0417V47.0417Z" fill="#202021"/>
</svg>
