<svg width="100" height="100" viewBox="0 0 100 100" fill="none" xmlns="http://www.w3.org/2000/svg">
<path d="M50 8.33301C41.1595 8.33301 32.681 11.8449 26.4298 18.0961C20.1786 24.3473 16.6667 32.8258 16.6667 41.6663C16.6667 64.1663 46.0417 89.583 47.2917 90.6663C48.0464 91.3119 49.0069 91.6666 50 91.6666C50.9932 91.6666 51.9536 91.3119 52.7084 90.6663C54.1667 89.583 83.3334 64.1663 83.3334 41.6663C83.3334 32.8258 79.8215 24.3473 73.5702 18.0961C67.319 11.8449 58.8406 8.33301 50 8.33301ZM50 81.8747C41.125 73.5413 25 55.583 25 41.6663C25 35.0359 27.6339 28.6771 32.3224 23.9887C37.0108 19.3003 43.3696 16.6663 50 16.6663C56.6304 16.6663 62.9893 19.3003 67.6777 23.9887C72.3661 28.6771 75 35.0359 75 41.6663C75 55.583 58.875 73.583 50 81.8747ZM50 24.9997C46.7037 24.9997 43.4813 25.9772 40.7405 27.8085C37.9997 29.6399 35.8635 32.2428 34.602 35.2883C33.3406 38.3337 33.0105 41.6848 33.6536 44.9178C34.2967 48.1509 35.884 51.1206 38.2149 53.4515C40.5458 55.7823 43.5155 57.3697 46.7485 58.0128C49.9815 58.6558 53.3326 58.3258 56.3781 57.0643C59.4235 55.8029 62.0265 53.6667 63.8578 50.9258C65.6892 48.185 66.6667 44.9627 66.6667 41.6663C66.6667 37.2461 64.9107 33.0068 61.7851 29.8812C58.6595 26.7556 54.4203 24.9997 50 24.9997ZM50 49.9997C48.3518 49.9997 46.7407 49.5109 45.3703 48.5953C43.9999 47.6796 42.9318 46.3781 42.301 44.8554C41.6703 43.3326 41.5053 41.6571 41.8268 40.0406C42.1484 38.4241 42.942 36.9392 44.1075 35.7738C45.2729 34.6083 46.7578 33.8147 48.3743 33.4931C49.9908 33.1716 51.6663 33.3366 53.189 33.9673C54.7118 34.5981 56.0133 35.6662 56.9289 37.0366C57.8446 38.407 58.3334 40.0182 58.3334 41.6663C58.3334 43.8765 57.4554 45.9961 55.8926 47.5589C54.3298 49.1217 52.2102 49.9997 50 49.9997Z" fill="#202021"/>
</svg>
