<svg width="20" height="20" viewBox="0 0 20 20" fill="none" xmlns="http://www.w3.org/2000/svg">
<path d="M14.5246 12.0154L13.9432 11.5417L13.9079 11.585L13.8794 11.6331L14.5246 12.0154ZM5.47544 12.0155L6.12067 11.6331L6.09218 11.5851L6.05687 11.5417L5.47544 12.0155ZM5.52574 12.0925L4.9162 12.5295L4.9162 12.5295L5.52574 12.0925ZM9.18731 17.1997L9.79684 16.7627L9.79684 16.7627L9.18731 17.1997ZM10.8127 17.1997L10.2032 16.7627L10.2032 16.7627L10.8127 17.1997ZM14.4743 12.0925L15.0838 12.5295L15.0838 12.5294L14.4743 12.0925ZM15.0833 8.33333C15.0833 9.55077 14.6563 10.6665 13.9432 11.5417L15.106 12.4892C16.0292 11.3561 16.5833 9.90843 16.5833 8.33333H15.0833ZM10 3.25C12.8075 3.25 15.0833 5.52589 15.0833 8.33333H16.5833C16.5833 4.69746 13.6359 1.75 10 1.75V3.25ZM4.91667 8.33333C4.91667 5.52589 7.19256 3.25 10 3.25V1.75C6.36413 1.75 3.41667 4.69746 3.41667 8.33333H4.91667ZM6.05687 11.5417C5.34372 10.6665 4.91667 9.55079 4.91667 8.33333H3.41667C3.41667 9.90844 3.97078 11.3562 4.89401 12.4892L6.05687 11.5417ZM6.13528 11.6555C6.12974 11.6478 6.12491 11.6403 6.12067 11.6331L4.83021 12.3978C4.85678 12.4427 4.88546 12.4866 4.9162 12.5295L6.13528 11.6555ZM9.79684 16.7627L6.13528 11.6555L4.9162 12.5295L8.57777 17.6367L9.79684 16.7627ZM10.2032 16.7627C10.1035 16.9018 9.89658 16.9018 9.79684 16.7627L8.57777 17.6367C9.27591 18.6105 10.7241 18.6105 11.4223 17.6367L10.2032 16.7627ZM13.8647 11.6555L10.2032 16.7627L11.4223 17.6367L15.0838 12.5295L13.8647 11.6555ZM13.8794 11.6331C13.8751 11.6403 13.8703 11.6478 13.8647 11.6555L15.0838 12.5294C15.1146 12.4865 15.1433 12.4426 15.1698 12.3978L13.8794 11.6331Z" fill="#202021"/>
<ellipse cx="10" cy="8.33333" rx="2.5" ry="2.5" stroke="#202021" stroke-width="1.5" stroke-linecap="round"/>
</svg>
