<svg width="24" height="24" viewBox="0 0 24 24" fill="none" xmlns="http://www.w3.org/2000/svg">
<path d="M17.4834 14.3516L16.8962 13.885L16.8847 13.8995L16.8738 13.9146L17.4834 14.3516ZM6.5167 14.3517L7.12624 13.9147L7.11542 13.8996L7.10387 13.8851L6.5167 14.3517ZM11.1873 20.8664L11.7968 20.4294L11.7968 20.4294L11.1873 20.8664ZM12.8127 20.8664L12.2032 20.4294L12.2032 20.4294L12.8127 20.8664ZM18.25 10C18.25 11.4692 17.744 12.8181 16.8962 13.885L18.0706 14.8182C19.1216 13.4955 19.75 11.8201 19.75 10H18.25ZM12 3.75C15.4518 3.75 18.25 6.54822 18.25 10H19.75C19.75 5.71979 16.2802 2.25 12 2.25V3.75ZM5.75 10C5.75 6.54822 8.54822 3.75 12 3.75V2.25C7.71979 2.25 4.25 5.71979 4.25 10H5.75ZM7.10387 13.8851C6.25603 12.8182 5.75 11.4692 5.75 10H4.25C4.25 11.8202 4.87841 13.4956 5.92954 14.8183L7.10387 13.8851ZM11.7968 20.4294L7.12624 13.9147L5.90717 14.7887L10.5778 21.3034L11.7968 20.4294ZM12.2032 20.4294C12.1035 20.5685 11.8966 20.5685 11.7968 20.4294L10.5778 21.3034C11.2759 22.2772 12.7241 22.2772 13.4223 21.3034L12.2032 20.4294ZM16.8738 13.9146L12.2032 20.4294L13.4223 21.3034L18.0929 14.7886L16.8738 13.9146Z" fill="#202021"/>
<circle cx="12" cy="10" r="3" stroke="#202021" stroke-width="1.5" stroke-linecap="round"/>
</svg>
