<svg width="24" height="24" viewBox="0 0 24 24" fill="none" xmlns="http://www.w3.org/2000/svg">
<rect x="5" y="10" width="14" height="11" rx="2" stroke="#202021" stroke-width="1.5" stroke-linecap="round"/>
<path d="M11.1454 13.2574C11.3973 13.0863 11.6955 12.9965 12 13.0001C12.3044 12.9965 12.6027 13.0863 12.8545 13.2574C13.1064 13.4285 13.2998 13.6726 13.4088 13.9569C13.5177 14.2412 13.5369 14.5521 13.4638 14.8477C13.3907 15.1432 13.2289 15.4093 13 15.6101V17.0001C13 17.2653 12.8946 17.5197 12.7071 17.7072C12.5195 17.8947 12.2652 18.0001 12 18.0001C11.7348 18.0001 11.4804 17.8947 11.2929 17.7072C11.1053 17.5197 11 17.2653 11 17.0001V15.6101C10.7711 15.4093 10.6092 15.1432 10.5361 14.8477C10.463 14.5521 10.4822 14.2412 10.5912 13.9569C10.7001 13.6726 10.8935 13.4285 11.1454 13.2574Z" fill="#202021"/>
<path d="M8 7C8 4.79086 9.79086 3 12 3V3C14.2091 3 16 4.79086 16 7V10H8V7Z" stroke="#202021" stroke-width="1.5" stroke-linecap="round"/>
</svg>
