<svg width="276" height="296" viewBox="0 0 276 296" fill="none" xmlns="http://www.w3.org/2000/svg">
<path d="M75.8599 64.5697C77.0912 62.2359 80.4336 62.2359 81.6649 64.5697L86.0339 72.8504C86.5087 73.7504 87.3742 74.3792 88.3769 74.5527L97.6024 76.1489C100.202 76.5988 101.235 79.7776 99.3962 81.6699L92.8709 88.3839C92.1617 89.1136 91.8311 90.131 91.9759 91.1382L93.3087 100.405C93.6843 103.017 90.9802 104.982 88.6123 103.818L80.2104 99.6864C79.2973 99.2374 78.2275 99.2374 77.3143 99.6864L68.9125 103.818C66.5445 104.982 63.8405 103.017 64.2161 100.405L65.5488 91.1382C65.6937 90.131 65.3631 89.1136 64.6539 88.3839L58.1285 81.6699C56.2895 79.7776 57.3223 76.5988 59.9224 76.1489L69.1479 74.5527C70.1506 74.3792 71.0161 73.7504 71.4909 72.8504L75.8599 64.5697Z" fill="white"/>
<path fill-rule="evenodd" clip-rule="evenodd" d="M0.000427246 77.2471C0.000427246 34.5847 34.5852 0 77.2476 0C119.91 0 154.495 34.5847 154.495 77.2471V111.579H262.54C269.79 111.579 275.667 117.456 275.667 124.706C275.667 131.956 269.79 137.833 262.54 137.833H141.368C134.118 137.833 128.241 131.956 128.241 124.706V77.2471C128.241 49.0844 105.41 26.2539 77.2476 26.2539C49.0848 26.2539 26.2544 49.0844 26.2544 77.2471V124.706C26.2544 131.956 20.3772 137.833 13.1274 137.833C5.87757 137.833 0.000427246 131.956 0.000427246 124.706V77.2471Z" fill="white"/>
<path fill-rule="evenodd" clip-rule="evenodd" d="M275.666 218.11C275.666 260.772 241.081 295.357 198.419 295.357C155.757 295.357 121.172 260.772 121.172 218.11V183.777H13.1269C5.87705 183.777 -9.82285e-05 177.9 -9.82285e-05 170.651C-9.82285e-05 163.401 5.87705 157.524 13.1269 157.524H134.299C141.549 157.524 147.426 163.401 147.426 170.651V218.11C147.426 246.272 170.256 269.103 198.419 269.103C226.582 269.103 249.412 246.272 249.412 218.11V170.651C249.412 163.401 255.289 157.524 262.539 157.524C269.789 157.524 275.666 163.401 275.666 170.651V218.11Z" fill="white"/>
<path d="M218.97 194.512C216.534 192.153 213.306 190.713 209.867 190.452C206.428 190.191 203.007 192.546 200.22 194.51C197.296 192.409 193.657 190.038 190.036 190.425C186.414 190.813 183.079 192.511 180.702 195.18C178.325 197.848 177.083 201.287 177.225 204.805C177.368 208.323 178.884 211.658 181.47 214.139L195.739 227.948C196.934 229.084 198.543 229.721 200.22 229.721C201.897 229.721 203.506 229.084 204.701 227.948L218.97 214.139C221.653 211.531 223.159 208.003 223.159 204.326C223.159 200.648 221.653 197.12 218.97 194.512Z" fill="white"/>
</svg>
