<svg width="100" height="100" viewBox="0 0 100 100" fill="none" xmlns="http://www.w3.org/2000/svg">
<path d="M90.4584 84.5415L75 69.2082C81.0004 61.7266 83.9063 52.2303 83.1201 42.6719C82.3339 33.1136 77.9153 24.2198 70.773 17.8192C63.6307 11.4186 54.3076 7.9978 44.7205 8.26014C35.1335 8.52247 26.0114 12.448 19.2298 19.2296C12.4482 26.0112 8.52266 35.1333 8.26032 44.7204C7.99799 54.3074 11.4188 63.6306 17.8194 70.7728C24.22 77.9151 33.1138 82.3337 42.6721 83.1199C52.2304 83.9061 61.7267 81.0003 69.2084 74.9999L84.5417 90.3332C84.929 90.7237 85.3899 91.0337 85.8976 91.2452C86.4054 91.4568 86.95 91.5657 87.5 91.5657C88.0501 91.5657 88.5947 91.4568 89.1024 91.2452C89.6102 91.0337 90.071 90.7237 90.4584 90.3332C91.2094 89.5562 91.6292 88.5179 91.6292 87.4374C91.6292 86.3568 91.2094 85.3185 90.4584 84.5415V84.5415ZM45.8334 74.9999C40.0647 74.9999 34.4257 73.2893 29.6292 70.0844C24.8328 66.8795 21.0944 62.3243 18.8869 56.9948C16.6793 51.6653 16.1017 45.8008 17.2271 40.143C18.3525 34.4853 21.1304 29.2883 25.2094 25.2092C29.2884 21.1302 34.4854 18.3523 40.1432 17.2269C45.801 16.1015 51.6655 16.6791 56.995 18.8867C62.3245 21.0942 66.8797 24.8326 70.0846 29.629C73.2894 34.4255 75 40.0646 75 45.8332C75 53.5687 71.9271 60.9873 66.4573 66.4571C60.9875 71.9269 53.5688 74.9999 45.8334 74.9999V74.9999Z" fill="#202021"/>
</svg>
