<svg width="100" height="100" viewBox="0 0 100 100" fill="none" xmlns="http://www.w3.org/2000/svg">
<path d="M50 29.1667C51.6481 29.1667 53.2593 28.6779 54.6297 27.7623C56.0001 26.8466 57.0682 25.5451 57.699 24.0224C58.3297 22.4996 58.4947 20.8241 58.1732 19.2076C57.8516 17.5911 57.058 16.1062 55.8925 14.9408C54.7271 13.7753 53.2422 12.9817 51.6257 12.6601C50.0092 12.3386 48.3337 12.5036 46.8109 13.1343C45.2882 13.7651 43.9867 14.8332 43.0711 16.2036C42.1554 17.574 41.6666 19.1852 41.6666 20.8333C41.6666 23.0435 42.5446 25.1631 44.1074 26.7259C45.6702 28.2887 47.7898 29.1667 50 29.1667ZM50 70.8333C48.3518 70.8333 46.7406 71.3221 45.3702 72.2378C43.9998 73.1534 42.9317 74.4549 42.301 75.9776C41.6702 77.5004 41.5052 79.1759 41.8268 80.7924C42.1483 82.4089 42.942 83.8938 44.1074 85.0592C45.2728 86.2247 46.7577 87.0183 48.3742 87.3399C49.9907 87.6614 51.6663 87.4964 53.189 86.8657C54.7117 86.2349 56.0132 85.1668 56.9289 83.7964C57.8446 82.426 58.3333 80.8148 58.3333 79.1667C58.3333 76.9565 57.4553 74.8369 55.8925 73.2741C54.3297 71.7113 52.2101 70.8333 50 70.8333ZM50 41.6667C48.3518 41.6667 46.7406 42.1554 45.3702 43.0711C43.9998 43.9868 42.9317 45.2883 42.301 46.811C41.6702 48.3337 41.5052 50.0093 41.8268 51.6258C42.1483 53.2423 42.942 54.7271 44.1074 55.8926C45.2728 57.058 46.7577 57.8517 48.3742 58.1732C49.9907 58.4948 51.6663 58.3297 53.189 57.699C54.7117 57.0683 56.0132 56.0002 56.9289 54.6298C57.8446 53.2593 58.3333 51.6482 58.3333 50C58.3333 47.7899 57.4553 45.6703 55.8925 44.1075C54.3297 42.5446 52.2101 41.6667 50 41.6667Z" fill="white"/>
</svg>
