<svg width="201" height="201" viewBox="0 0 201 201" fill="none" xmlns="http://www.w3.org/2000/svg">
<path d="M100.501 100.5C123.951 100.5 142.376 82.0749 142.376 58.6249C142.376 35.1749 123.951 16.7499 100.501 16.7499C77.0509 16.7499 58.6259 35.1749 58.6259 58.6249C58.6259 82.0749 77.0509 100.5 100.501 100.5ZM178.388 174.2C167.501 131.487 123.951 104.687 81.2384 115.575C52.7634 123.112 30.1509 144.887 22.6134 174.2C21.7759 178.387 24.2884 183.412 29.3134 184.25C30.1509 184.25 30.9884 184.25 30.9884 184.25H170.013C175.038 184.25 178.388 180.9 178.388 175.875C178.388 175.037 178.388 174.2 178.388 174.2Z" fill="#78787B"/>
</svg>
