<svg width="80" height="80" viewBox="0 0 80 80" fill="none" xmlns="http://www.w3.org/2000/svg">
<path d="M51.8 37.6338L32.9334 18.8004C32.6235 18.488 32.2548 18.24 31.8486 18.0708C31.4424 17.9016 31.0067 17.8145 30.5667 17.8145C30.1266 17.8145 29.691 17.9016 29.2848 18.0708C28.8786 18.24 28.5099 18.488 28.2 18.8004C27.5792 19.425 27.2307 20.2698 27.2307 21.1504C27.2307 22.0311 27.5792 22.8759 28.2 23.5004L44.7 40.1671L28.2 56.6671C27.5792 57.2917 27.2307 58.1365 27.2307 59.0171C27.2307 59.8977 27.5792 60.7426 28.2 61.3671C28.5087 61.6821 28.8769 61.9326 29.2831 62.1043C29.6894 62.276 30.1257 62.3653 30.5667 62.3671C31.0077 62.3653 31.444 62.276 31.8502 62.1043C32.2565 61.9326 32.6246 61.6821 32.9334 61.3671L51.8 42.5338C52.1384 42.2216 52.4084 41.8428 52.5931 41.4211C52.7778 40.9995 52.8731 40.5441 52.8731 40.0838C52.8731 39.6234 52.7778 39.1681 52.5931 38.7464C52.4084 38.3248 52.1384 37.9459 51.8 37.6338V37.6338Z" fill="#202021"/>
</svg>
