<svg width="36" height="36" viewBox="0 0 36 36" fill="none" xmlns="http://www.w3.org/2000/svg">
<rect width="36" height="36" rx="18" fill="#D7D7D9"/>
<path d="M25 12.5H23.72L23.4 11.5C23.1926 10.9132 22.8077 10.4055 22.2989 10.0472C21.7901 9.68882 21.1824 9.4976 20.56 9.5H15.44C14.8115 9.50118 14.1993 9.69968 13.6898 10.0675C13.1802 10.4353 12.799 10.9539 12.6 11.55L12.28 12.55H11C10.2044 12.55 9.44129 12.8661 8.87868 13.4287C8.31607 13.9913 8 14.7544 8 15.55V23.55C8 24.3456 8.31607 25.1087 8.87868 25.6713C9.44129 26.2339 10.2044 26.55 11 26.55H25C25.7956 26.55 26.5587 26.2339 27.1213 25.6713C27.6839 25.1087 28 24.3456 28 23.55V15.55C28.0066 15.1518 27.9339 14.7564 27.7862 14.3866C27.6384 14.0168 27.4184 13.6802 27.1392 13.3963C26.86 13.1124 26.527 12.8869 26.1597 12.733C25.7924 12.5792 25.3982 12.4999 25 12.5ZM26 23.5C26 23.7652 25.8946 24.0196 25.7071 24.2071C25.5196 24.3946 25.2652 24.5 25 24.5H11C10.7348 24.5 10.4804 24.3946 10.2929 24.2071C10.1054 24.0196 10 23.7652 10 23.5V15.5C10 15.2348 10.1054 14.9804 10.2929 14.7929C10.4804 14.6054 10.7348 14.5 11 14.5H13C13.2181 14.5114 13.4339 14.4511 13.6144 14.3283C13.795 14.2055 13.9304 14.027 14 13.82L14.54 12.18C14.6071 11.9814 14.7349 11.8089 14.9054 11.6868C15.0758 11.5648 15.2804 11.4995 15.49 11.5H20.61C20.8196 11.4995 21.0242 11.5648 21.1946 11.6868C21.3651 11.8089 21.4929 11.9814 21.56 12.18L22.1 13.82C22.1642 14.0107 22.2844 14.1777 22.445 14.299C22.6055 14.4203 22.799 14.4904 23 14.5H25C25.2652 14.5 25.5196 14.6054 25.7071 14.7929C25.8946 14.9804 26 15.2348 26 15.5V23.5ZM18 14.5C17.2089 14.5 16.4355 14.7346 15.7777 15.1741C15.1199 15.6136 14.6072 16.2384 14.3045 16.9693C14.0017 17.7002 13.9225 18.5044 14.0769 19.2804C14.2312 20.0563 14.6122 20.769 15.1716 21.3284C15.731 21.8878 16.4437 22.2688 17.2196 22.4231C17.9956 22.5775 18.7998 22.4983 19.5307 22.1955C20.2616 21.8928 20.8864 21.3801 21.3259 20.7223C21.7654 20.0645 22 19.2911 22 18.5C22 17.4391 21.5786 16.4217 20.8284 15.6716C20.0783 14.9214 19.0609 14.5 18 14.5V14.5ZM18 20.5C17.6044 20.5 17.2178 20.3827 16.8889 20.1629C16.56 19.9432 16.3036 19.6308 16.1522 19.2654C16.0009 18.8999 15.9613 18.4978 16.0384 18.1098C16.1156 17.7219 16.3061 17.3655 16.5858 17.0858C16.8655 16.8061 17.2219 16.6156 17.6098 16.5384C17.9978 16.4613 18.3999 16.5009 18.7654 16.6522C19.1308 16.8036 19.4432 17.06 19.6629 17.3889C19.8827 17.7178 20 18.1044 20 18.5C20 19.0304 19.7893 19.5391 19.4142 19.9142C19.0391 20.2893 18.5304 20.5 18 20.5Z" fill="#F6F6F9"/>
</svg>
