<svg width="100" height="100" viewBox="0 0 100 100" fill="none" xmlns="http://www.w3.org/2000/svg">
<path d="M88.8333 39.7914L80.9583 37.1664L84.6667 29.7497C85.0426 28.9734 85.1683 28.0995 85.0265 27.2487C84.8847 26.3979 84.4824 25.6121 83.875 24.9997L75 16.1247C74.3843 15.5084 73.5909 15.1005 72.7314 14.9585C71.8719 14.8165 70.9895 14.9475 70.2083 15.333L62.7917 19.0414L60.1667 11.1664C59.8894 10.3455 59.3632 9.63146 58.6612 9.12364C57.9592 8.61582 57.1164 8.33946 56.25 8.33302H43.75C42.8765 8.33077 42.0243 8.6031 41.314 9.11153C40.6037 9.61996 40.0712 10.3388 39.7917 11.1664L37.1667 19.0414L29.75 15.333C28.9737 14.9571 28.0998 14.8314 27.249 14.9732C26.3982 15.115 25.6124 15.5173 25 16.1247L16.125 24.9997C15.5087 25.6154 15.1009 26.4088 14.9588 27.2683C14.8168 28.1278 14.9478 29.0101 15.3333 29.7914L19.0417 37.208L11.1667 39.833C10.3458 40.1103 9.63177 40.6365 9.12394 41.3385C8.61612 42.0405 8.33976 42.8833 8.33333 43.7497V56.2497C8.33107 57.1232 8.60341 57.9753 9.11184 58.6856C9.62026 59.3959 10.3391 59.9285 11.1667 60.208L19.0417 62.833L15.3333 70.2497C14.9574 71.026 14.8317 71.8998 14.9735 72.7506C15.1153 73.6014 15.5176 74.3873 16.125 74.9997L25 83.8747C25.6157 84.491 26.4091 84.8988 27.2686 85.0408C28.1281 85.1828 29.0105 85.0519 29.7917 84.6664L37.2083 80.958L39.8333 88.833C40.1129 89.6606 40.6454 90.3794 41.3557 90.8878C42.066 91.3963 42.9181 91.6686 43.7917 91.6664H56.2917C57.1652 91.6686 58.0173 91.3963 58.7276 90.8878C59.4379 90.3794 59.9705 89.6606 60.25 88.833L62.875 80.958L70.2917 84.6664C71.063 85.0328 71.9283 85.1534 72.7705 85.0118C73.6126 84.8702 74.3909 84.4732 75 83.8747L83.875 74.9997C84.4913 74.384 84.8991 73.5906 85.0411 72.7311C85.1831 71.8716 85.0522 70.9892 84.6667 70.208L80.9583 62.7913L88.8333 60.1663C89.6542 59.8891 90.3682 59.3629 90.876 58.6609C91.3839 57.9589 91.6602 57.1161 91.6667 56.2497V43.7497C91.6689 42.8762 91.3966 42.024 90.8882 41.3137C90.3797 40.6034 89.6609 40.0709 88.8333 39.7914ZM83.3333 53.2497L78.3333 54.9164C77.1836 55.2893 76.1287 55.9079 75.2419 56.7293C74.3551 57.5506 73.6576 58.5551 73.1977 59.6729C72.7379 60.7908 72.5268 61.9953 72.579 63.2029C72.6312 64.4105 72.9454 65.5923 73.5 66.6664L75.875 71.4163L71.2917 75.9997L66.6667 73.4997C65.5981 72.9673 64.4277 72.6708 63.2346 72.6301C62.0415 72.5894 60.8536 72.8055 59.7513 73.2638C58.649 73.7221 57.658 74.4119 56.8455 75.2865C56.0329 76.1611 55.4178 77.2 55.0417 78.333L53.375 83.333H46.75L45.0833 78.333C44.7104 77.1833 44.0918 76.1284 43.2704 75.2416C42.449 74.3548 41.4446 73.6573 40.3267 73.1974C39.2089 72.7376 38.0044 72.5265 36.7968 72.5787C35.5891 72.6309 34.4073 72.9451 33.3333 73.4997L28.5833 75.8747L24 71.2914L26.5 66.6664C27.0546 65.5923 27.3688 64.4105 27.421 63.2029C27.4732 61.9953 27.2621 60.7908 26.8022 59.6729C26.3424 58.5551 25.6449 57.5506 24.7581 56.7293C23.8713 55.9079 22.8164 55.2893 21.6667 54.9164L16.6667 53.2497V46.7497L21.6667 45.083C22.8164 44.7101 23.8713 44.0915 24.7581 43.2701C25.6449 42.4487 26.3424 41.4443 26.8022 40.3264C27.2621 39.2086 27.4732 38.0041 27.421 36.7965C27.3688 35.5888 27.0546 34.407 26.5 33.333L24.125 28.708L28.7083 24.1247L33.3333 26.4997C34.4073 27.0542 35.5891 27.3685 36.7968 27.4207C38.0044 27.4729 39.2089 27.2618 40.3267 26.8019C41.4446 26.3421 42.449 25.6446 43.2704 24.7578C44.0918 23.871 44.7104 22.8161 45.0833 21.6664L46.75 16.6664H53.25L54.9167 21.6664C55.2896 22.8161 55.9082 23.871 56.7296 24.7578C57.5509 25.6446 58.5554 26.3421 59.6732 26.8019C60.7911 27.2618 61.9956 27.4729 63.2032 27.4207C64.4108 27.3685 65.5926 27.0542 66.6667 26.4997L71.4167 24.1247L76 28.708L73.5 33.333C72.9676 34.4015 72.6711 35.572 72.6304 36.7651C72.5897 37.9581 72.8058 39.1461 73.2641 40.2484C73.7224 41.3507 74.4122 42.3416 75.2868 43.1542C76.1614 43.9667 77.2003 44.5819 78.3333 44.958L83.3333 46.6247V53.2497ZM50 33.333C46.7036 33.333 43.4813 34.3105 40.7405 36.1419C37.9997 37.9732 35.8635 40.5762 34.602 43.6216C33.3405 46.6671 33.0105 50.0182 33.6536 53.2512C34.2967 56.4842 35.884 59.4539 38.2149 61.7848C40.5458 64.1157 43.5155 65.703 46.7485 66.3461C49.9815 66.9892 53.3326 66.6591 56.378 65.3977C59.4235 64.1362 62.0265 62 63.8578 59.2592C65.6892 56.5184 66.6667 53.296 66.6667 49.9997C66.6667 45.5794 64.9107 41.3402 61.7851 38.2146C58.6595 35.089 54.4203 33.333 50 33.333V33.333ZM50 58.333C48.3518 58.333 46.7406 57.8443 45.3702 56.9286C43.9998 56.0129 42.9317 54.7114 42.301 53.1887C41.6703 51.666 41.5052 49.9904 41.8268 48.3739C42.1483 46.7574 42.942 45.2726 44.1074 44.1071C45.2729 42.9417 46.7577 42.148 48.3742 41.8265C49.9907 41.5049 51.6663 41.67 53.189 42.3007C54.7117 42.9314 56.0132 43.9995 56.9289 45.3699C57.8446 46.7403 58.3333 48.3515 58.3333 49.9997C58.3333 52.2098 57.4553 54.3294 55.8925 55.8922C54.3297 57.455 52.2101 58.333 50 58.333Z" fill="black"/>
</svg>
