<svg width="24" height="24" viewBox="0 0 24 24" fill="none" xmlns="http://www.w3.org/2000/svg">
<circle cx="12" cy="12" r="3" stroke="#202021" stroke-width="1.5" stroke-linecap="round"/>
<path d="M9.90116 3.88957L10.6466 3.97239L10.6466 3.97239L9.90116 3.88957ZM14.0988 3.88957L13.3534 3.97239L13.3534 3.97239L14.0988 3.88957ZM14.2638 5.37415L13.5184 5.45697C13.5505 5.74573 13.7464 5.98998 14.0214 6.08389L14.2638 5.37415ZM15.0841 5.71427L14.7532 6.38734C15.0141 6.51559 15.3256 6.48152 15.5526 6.29992L15.0841 5.71427ZM16.2508 4.78088L16.7193 5.36654L16.7193 5.36654L16.2508 4.78088ZM17.5826 4.85465L18.1129 4.32432L17.5826 4.85465ZM19.1453 6.41729L19.6756 5.88696L19.6756 5.88696L19.1453 6.41729ZM19.219 7.74909L18.6334 7.28057L18.6334 7.28057L19.219 7.74909ZM18.2857 8.91578L17.7 8.44726C17.5184 8.67427 17.4843 8.98578 17.6126 9.24667L18.2857 8.91578ZM18.6259 9.73621L17.9161 9.97863C18.01 10.2536 18.2543 10.4495 18.543 10.4816L18.6259 9.73621ZM20.1104 9.90116L20.0276 10.6466L20.0276 10.6466L20.1104 9.90116ZM20.1104 14.0988L20.0276 13.3534L20.0276 13.3534L20.1104 14.0988ZM18.6259 14.2638L18.543 13.5184C18.2543 13.5505 18.01 13.7464 17.9161 14.0214L18.6259 14.2638ZM18.2858 15.0839L17.6128 14.753C17.4845 15.0139 17.5186 15.3254 17.7002 15.5524L18.2858 15.0839ZM19.2191 16.2504L18.6334 16.7189L18.6334 16.7189L19.2191 16.2504ZM19.1453 17.5822L18.615 17.0519L18.615 17.0519L19.1453 17.5822ZM17.5826 19.1448L18.113 19.6752L18.113 19.6752L17.5826 19.1448ZM16.2508 19.2186L16.7194 18.6329L16.7194 18.6329L16.2508 19.2186ZM15.0845 18.2855L15.553 17.6999C15.326 17.5183 15.0145 17.4842 14.7536 17.6125L15.0845 18.2855ZM14.2638 18.6259L14.0214 17.9161C13.7464 18.01 13.5505 18.2543 13.5184 18.543L14.2638 18.6259ZM14.0988 20.1104L14.8443 20.1933L14.8443 20.1933L14.0988 20.1104ZM9.90116 20.1104L10.6466 20.0276L10.6466 20.0276L9.90116 20.1104ZM9.73621 18.6259L10.4816 18.543C10.4495 18.2543 10.2536 18.01 9.97863 17.9161L9.73621 18.6259ZM8.91578 18.2857L9.24666 17.6126C8.98577 17.4843 8.67426 17.5184 8.44725 17.7L8.91578 18.2857ZM7.74914 19.219L7.28062 18.6333L7.28061 18.6333L7.74914 19.219ZM6.41734 19.1452L6.94767 18.6149L6.94767 18.6149L6.41734 19.1452ZM4.85469 17.5826L4.32436 18.1129L4.85469 17.5826ZM4.78093 16.2508L5.36658 16.7193L5.36658 16.7193L4.78093 16.2508ZM5.71427 15.0841L6.29992 15.5526C6.48152 15.3256 6.51559 15.0141 6.38734 14.7532L5.71427 15.0841ZM5.37415 14.2638L6.08389 14.0214C5.98998 13.7464 5.74573 13.5505 5.45697 13.5184L5.37415 14.2638ZM3.88957 14.0988L3.97239 13.3534L3.97239 13.3534L3.88957 14.0988ZM3.88957 9.90116L3.97239 10.6466L3.97239 10.6466L3.88957 9.90116ZM5.37415 9.73621L5.45697 10.4816C5.74573 10.4495 5.98998 10.2536 6.08389 9.97863L5.37415 9.73621ZM5.71444 8.91556L6.3875 9.24646C6.51577 8.98557 6.48171 8.67405 6.3001 8.44704L5.71444 8.91556ZM4.78096 7.74871L5.36662 7.28019L5.36662 7.28019L4.78096 7.74871ZM4.85473 6.41691L4.3244 5.88658L4.3244 5.88658L4.85473 6.41691ZM6.41737 4.85426L5.88704 4.32393L5.88704 4.32393L6.41737 4.85426ZM7.74917 4.7805L7.28065 5.36615L7.28065 5.36615L7.74917 4.7805ZM8.91621 5.71413L8.44768 6.29978C8.67468 6.48137 8.98616 6.51544 9.24704 6.38721L8.91621 5.71413ZM9.73621 5.37415L9.97863 6.08389C10.2536 5.98998 10.4495 5.74573 10.4816 5.45697L9.73621 5.37415ZM10.895 2.25C10.0033 2.25 9.25422 2.92049 9.15575 3.80674L10.6466 3.97239C10.6606 3.84578 10.7677 3.75 10.895 3.75V2.25ZM13.105 2.25H10.895V3.75H13.105V2.25ZM14.8443 3.80675C14.7458 2.92049 13.9967 2.25 13.105 2.25V3.75C13.2323 3.75 13.3394 3.84578 13.3534 3.97239L14.8443 3.80675ZM15.0092 5.29133L14.8443 3.80674L13.3534 3.97239L13.5184 5.45697L15.0092 5.29133ZM15.4149 5.04119C15.122 4.8972 14.8186 4.77112 14.5062 4.66441L14.0214 6.08389C14.2729 6.1698 14.5172 6.27132 14.7532 6.38734L15.4149 5.04119ZM15.7823 4.19523L14.6156 5.12862L15.5526 6.29992L16.7193 5.36654L15.7823 4.19523ZM18.1129 4.32432C17.4824 3.69378 16.4786 3.63818 15.7823 4.19523L16.7193 5.36654C16.8188 5.28696 16.9622 5.2949 17.0523 5.38498L18.1129 4.32432ZM19.6756 5.88696L18.1129 4.32432L17.0523 5.38498L18.6149 6.94762L19.6756 5.88696ZM19.8047 8.21762C20.3617 7.52131 20.3061 6.5175 19.6756 5.88696L18.6149 6.94762C18.705 7.0377 18.7129 7.1811 18.6334 7.28057L19.8047 8.21762ZM18.8713 9.3843L19.8047 8.21761L18.6334 7.28057L17.7 8.44726L18.8713 9.3843ZM19.3356 9.49378C19.2289 9.1813 19.1028 8.87786 18.9587 8.5849L17.6126 9.24667C17.7286 9.48271 17.8302 9.72708 17.9161 9.97863L19.3356 9.49378ZM20.1933 9.15575L18.7087 8.99079L18.543 10.4816L20.0276 10.6466L20.1933 9.15575ZM21.75 10.895C21.75 10.0033 21.0795 9.25422 20.1933 9.15575L20.0276 10.6466C20.1542 10.6606 20.25 10.7677 20.25 10.895H21.75ZM21.75 13.105V10.895H20.25V13.105H21.75ZM20.1933 14.8443C21.0795 14.7458 21.75 13.9967 21.75 13.105H20.25C20.25 13.2323 20.1542 13.3394 20.0276 13.3534L20.1933 14.8443ZM18.7087 15.0092L20.1933 14.8443L20.0276 13.3534L18.543 13.5184L18.7087 15.0092ZM18.9589 15.4147C19.1029 15.1219 19.2289 14.8186 19.3356 14.5062L17.9161 14.0214C17.8302 14.2728 17.7287 14.5171 17.6128 14.753L18.9589 15.4147ZM17.7002 15.5524L18.6334 16.7189L19.8047 15.7819L18.8715 14.6153L17.7002 15.5524ZM18.6334 16.7189C18.713 16.8184 18.705 16.9618 18.615 17.0519L19.6756 18.1125C20.3062 17.482 20.3618 16.4782 19.8047 15.7819L18.6334 16.7189ZM18.615 17.0519L17.0523 18.6145L18.113 19.6752L19.6756 18.1125L18.615 17.0519ZM17.0523 18.6145C16.9622 18.7046 16.8188 18.7125 16.7194 18.6329L15.7823 19.8042C16.4786 20.3613 17.4824 20.3057 18.113 19.6752L17.0523 18.6145ZM16.7194 18.6329L15.553 17.6999L14.616 18.8712L15.7823 19.8042L16.7194 18.6329ZM14.5062 19.3356C14.8188 19.2288 15.1224 19.1027 15.4154 18.9586L14.7536 17.6125C14.5175 17.7286 14.273 17.8302 14.0214 17.9161L14.5062 19.3356ZM14.8443 20.1933L15.0092 18.7087L13.5184 18.543L13.3534 20.0276L14.8443 20.1933ZM13.105 21.75C13.9967 21.75 14.7458 21.0795 14.8443 20.1933L13.3534 20.0276C13.3394 20.1542 13.2323 20.25 13.105 20.25V21.75ZM10.895 21.75H13.105V20.25H10.895V21.75ZM9.15575 20.1933C9.25422 21.0795 10.0033 21.75 10.895 21.75V20.25C10.7677 20.25 10.6606 20.1542 10.6466 20.0276L9.15575 20.1933ZM8.99079 18.7087L9.15575 20.1933L10.6466 20.0276L10.4816 18.543L8.99079 18.7087ZM8.58489 18.9587C8.87786 19.1028 9.1813 19.2289 9.49378 19.3356L9.97863 17.9161C9.72708 17.8302 9.4827 17.7286 9.24666 17.6126L8.58489 18.9587ZM8.21766 19.8046L9.3843 18.8713L8.44725 17.7L7.28062 18.6333L8.21766 19.8046ZM5.88701 19.6755C6.51754 20.3061 7.52135 20.3617 8.21766 19.8046L7.28061 18.6333C7.18114 18.7129 7.03774 18.705 6.94767 18.6149L5.88701 19.6755ZM4.32436 18.1129L5.88701 19.6755L6.94767 18.6149L5.38502 17.0522L4.32436 18.1129ZM4.19528 15.7822C3.63823 16.4786 3.69383 17.4824 4.32436 18.1129L5.38502 17.0522C5.29494 16.9622 5.287 16.8188 5.36658 16.7193L4.19528 15.7822ZM5.12862 14.6156L4.19528 15.7822L5.36658 16.7193L6.29992 15.5526L5.12862 14.6156ZM4.66441 14.5062C4.77112 14.8186 4.89721 15.122 5.0412 15.415L6.38734 14.7532C6.27133 14.5172 6.1698 14.2729 6.08389 14.0214L4.66441 14.5062ZM3.80674 14.8443L5.29133 15.0092L5.45697 13.5184L3.97239 13.3534L3.80674 14.8443ZM2.25 13.105C2.25 13.9967 2.92049 14.7458 3.80674 14.8443L3.97239 13.3534C3.84578 13.3394 3.75 13.2323 3.75 13.105H2.25ZM2.25 10.895V13.105H3.75V10.895H2.25ZM3.80674 9.15575C2.92049 9.25422 2.25 10.0033 2.25 10.895H3.75C3.75 10.7677 3.84578 10.6606 3.97239 10.6466L3.80674 9.15575ZM5.29133 8.99079L3.80674 9.15575L3.97239 10.6466L5.45697 10.4816L5.29133 8.99079ZM5.04139 8.58465C4.89732 8.87769 4.77117 9.18121 4.66441 9.49378L6.08389 9.97863C6.16984 9.72701 6.27142 9.48257 6.3875 9.24646L5.04139 8.58465ZM6.3001 8.44704L5.36662 7.28019L4.19531 8.21723L5.12879 9.38408L6.3001 8.44704ZM5.36662 7.28019C5.28704 7.18072 5.29498 7.03731 5.38506 6.94724L4.3244 5.88658C3.69386 6.51711 3.63826 7.52092 4.19531 8.21723L5.36662 7.28019ZM5.38506 6.94724L6.9477 5.38459L5.88704 4.32393L4.3244 5.88658L5.38506 6.94724ZM6.9477 5.38459C7.03778 5.29452 7.18118 5.28657 7.28065 5.36615L8.2177 4.19485C7.52139 3.6378 6.51758 3.6934 5.88704 4.32393L6.9477 5.38459ZM7.28065 5.36615L8.44768 6.29978L9.38473 5.12847L8.21769 4.19485L7.28065 5.36615ZM9.49378 4.66441C9.18147 4.77109 8.87819 4.89711 8.58537 5.04104L9.24704 6.38721C9.48297 6.27125 9.72721 6.16977 9.97863 6.08389L9.49378 4.66441ZM9.15575 3.80674L8.99079 5.29132L10.4816 5.45697L10.6466 3.97239L9.15575 3.80674Z" fill="#202021"/>
</svg>
