<svg width="51" height="50" viewBox="0 0 51 50" fill="none" xmlns="http://www.w3.org/2000/svg">
<path d="M22.447 7.63106C23.5305 5.48862 26.4717 5.48862 27.5553 7.63107L31.3998 15.2328C31.8177 16.059 32.5793 16.6363 33.4616 16.7955L41.5798 18.2609C43.8678 18.6739 44.7766 21.5921 43.1583 23.3292L37.4162 29.4926C36.7921 30.1625 36.5012 31.0966 36.6287 32.0212L37.8014 40.5286C38.132 42.9263 35.7525 44.7298 33.6687 43.6609L26.2754 39.8684C25.4718 39.4562 24.5304 39.4562 23.7269 39.8684L16.3335 43.6609C14.2498 44.7298 11.8703 42.9263 12.2008 40.5286L13.3736 32.0212C13.5011 31.0965 13.2101 30.1625 12.5861 29.4926L6.84396 23.3291C5.22563 21.5921 6.13451 18.6739 8.4225 18.2609L16.5407 16.7955C17.423 16.6363 18.1846 16.059 18.6024 15.2328L22.447 7.63106Z" fill="#FFD84D"/>
</svg>
