<svg width="30" height="30" viewBox="0 0 30 30" fill="none" xmlns="http://www.w3.org/2000/svg">
<path d="M21.9531 26.9495C21.7505 26.9494 21.5509 26.9002 21.3715 26.806L15 23.4564L8.62854 26.806C8.42207 26.9145 8.18936 26.9631 7.95672 26.9463C7.72407 26.9295 7.50078 26.8479 7.31206 26.7109C7.12335 26.5738 6.97675 26.3866 6.88884 26.1706C6.80092 25.9545 6.7752 25.7182 6.81458 25.4883L8.03162 18.3936L2.8772 13.3698C2.71023 13.2069 2.59213 13.0006 2.53625 12.7742C2.48038 12.5477 2.48896 12.3102 2.56102 12.0883C2.63309 11.8665 2.76576 11.6692 2.94405 11.5188C3.12234 11.3685 3.33914 11.2709 3.56995 11.2373L10.6934 10.2021L13.8788 3.74757C13.9939 3.55263 14.1578 3.39108 14.3545 3.27886C14.5511 3.16663 14.7736 3.1076 15 3.1076C15.2264 3.1076 15.4488 3.16663 15.6455 3.27886C15.8421 3.39108 16.006 3.55263 16.1212 3.74757L19.3066 10.202L26.43 11.2372C26.6608 11.2708 26.8776 11.3683 27.0559 11.5187C27.2342 11.6691 27.3669 11.8664 27.4389 12.0882C27.511 12.31 27.5196 12.5476 27.4637 12.7741C27.4078 13.0005 27.2897 13.2068 27.1228 13.3697L21.9684 18.3934L23.1854 25.4882C23.2162 25.6676 23.2074 25.8516 23.1596 26.0273C23.1119 26.203 23.0263 26.3661 22.9089 26.5053C22.7916 26.6444 22.6452 26.7563 22.4801 26.833C22.315 26.9097 22.1351 26.9495 21.9531 26.9494L21.9531 26.9495Z" fill="#E2E2E6"/>
</svg>
