<svg width="100" height="100" viewBox="0 0 100 100" fill="none" xmlns="http://www.w3.org/2000/svg">
<path d="M45.8333 8.33301C37.5924 8.33301 29.5366 10.7767 22.6846 15.3551C15.8325 19.9335 10.492 26.4409 7.33833 34.0545C4.18468 41.6681 3.35954 50.0459 4.96726 58.1284C6.57498 66.211 10.5433 73.6353 16.3705 79.4625C22.1977 85.2896 29.622 89.258 37.7046 90.8657C45.7871 92.4734 54.1649 91.6483 61.7785 88.4947C69.392 85.341 75.8995 80.0005 80.4779 73.1484C85.0563 66.2964 87.5 58.2406 87.5 49.9997C87.5 44.5279 86.4222 39.1098 84.3283 34.0545C82.2344 28.9993 79.1652 24.406 75.2961 20.5369C71.427 16.6678 66.8337 13.5986 61.7785 11.5047C56.7232 9.41075 51.3051 8.33301 45.8333 8.33301V8.33301ZM45.8333 83.333C39.2406 83.333 32.7959 81.378 27.3143 77.7153C21.8327 74.0526 17.5602 68.8467 15.0373 62.7558C12.5144 56.6649 11.8543 49.9627 13.1405 43.4967C14.4266 37.0306 17.6013 31.0912 22.2631 26.4294C26.9248 21.7677 32.8643 18.593 39.3303 17.3068C45.7963 16.0207 52.4986 16.6808 58.5894 19.2037C64.6803 21.7266 69.8863 25.999 73.549 31.4807C77.2117 36.9623 79.1666 43.407 79.1666 49.9997C79.1666 58.8402 75.6548 67.3187 69.4035 73.5699C63.1523 79.8211 54.6739 83.333 45.8333 83.333V83.333ZM58.75 52.6247L50 47.583V29.1663C50 28.0613 49.561 27.0015 48.7796 26.2201C47.9982 25.4387 46.9384 24.9997 45.8333 24.9997C44.7282 24.9997 43.6684 25.4387 42.887 26.2201C42.1056 27.0015 41.6666 28.0613 41.6666 29.1663V49.9997C41.6666 49.9997 41.6666 50.333 41.6666 50.4997C41.6913 50.7868 41.7616 51.0681 41.875 51.333C41.9608 51.5802 42.0725 51.8176 42.2083 52.0413C42.3223 52.2782 42.4621 52.5017 42.625 52.708L43.2917 53.2497L43.6666 53.6247L54.5 59.8747C55.135 60.2346 55.8534 60.4214 56.5833 60.4163C57.5059 60.4228 58.4045 60.1229 59.1383 59.5636C59.872 59.0043 60.3994 58.2173 60.6377 57.326C60.876 56.4348 60.8118 55.4896 60.4551 54.6387C60.0983 53.7879 59.4693 53.0795 58.6666 52.6247H58.75Z" fill="black"/>
</svg>
