<svg width="369" height="392" viewBox="0 0 369 392" fill="none" xmlns="http://www.w3.org/2000/svg">
<path d="M102.236 85.6999C103.87 82.6026 108.307 82.6026 109.941 85.6999L115.741 96.6902C116.371 97.8846 117.52 98.7194 118.851 98.9495L131.097 101.068C134.549 101.665 135.919 105.884 133.478 108.395L124.817 117.307C123.875 118.275 123.436 119.625 123.628 120.962L125.397 133.261C125.896 136.728 122.307 139.336 119.164 137.79L108.011 132.307C106.798 131.711 105.379 131.711 104.167 132.307L93.0135 137.79C89.8705 139.336 86.2811 136.728 86.7797 133.261L88.5486 120.962C88.7409 119.625 88.3023 118.275 87.3609 117.307L78.6986 108.395C76.2577 105.884 77.6285 101.665 81.08 101.068L93.3262 98.9495C94.6569 98.7194 95.8059 97.8846 96.4364 96.6902L102.236 85.6999Z" fill="white"/>
<path fill-rule="evenodd" clip-rule="evenodd" d="M1.53833 102.523C1.53833 45.9011 47.447 0 104.078 0C160.709 0 206.617 45.9011 206.617 102.523V148.089H350.038C359.662 148.089 367.463 155.889 367.463 165.511C367.463 175.133 359.662 182.933 350.038 182.933H189.192C179.568 182.933 171.767 175.133 171.767 165.511V102.523C171.767 65.1453 141.462 34.8444 104.078 34.8444C66.6941 34.8444 36.3883 65.1453 36.3883 102.523V165.511C36.3883 175.133 28.5869 182.933 18.9633 182.933C9.33975 182.933 1.53833 175.133 1.53833 165.511V102.523Z" fill="white"/>
<path fill-rule="evenodd" clip-rule="evenodd" d="M367.462 289.477C367.462 346.099 321.553 392 264.922 392C208.291 392 162.383 346.099 162.383 289.477V243.911H18.9618C9.33833 243.911 1.53687 236.111 1.53687 226.489C1.53687 216.867 9.33833 209.066 18.9618 209.066H179.808C189.432 209.066 197.233 216.867 197.233 226.489V289.477C197.233 326.855 227.538 357.155 264.922 357.155C302.306 357.155 332.612 326.855 332.612 289.477V226.489C332.612 216.867 340.413 209.066 350.037 209.066C359.66 209.066 367.462 216.867 367.462 226.489V289.477Z" fill="white"/>
<path d="M292.203 258.159C288.97 255.027 284.684 253.116 280.119 252.77C275.555 252.424 271.013 255.55 267.314 258.156C263.433 255.368 258.603 252.22 253.795 252.734C248.988 253.249 244.561 255.503 241.406 259.045C238.25 262.586 236.601 267.151 236.791 271.82C236.98 276.489 238.993 280.915 242.425 284.207L261.366 302.535C262.952 304.043 265.088 304.889 267.314 304.889C269.539 304.889 271.675 304.043 273.262 302.535L292.203 284.207C295.765 280.746 297.763 276.064 297.763 271.183C297.763 266.303 295.765 261.621 292.203 258.159Z" fill="white"/>
</svg>
