<svg width="73" height="22" viewBox="0 0 73 22" fill="none" xmlns="http://www.w3.org/2000/svg">
<path d="M9.57477 17V3H12.9748V17H9.57477ZM0.894766 17V3H4.29477V17H0.894766ZM2.21477 11.54L2.23477 8.5H11.3748V11.54H2.21477ZM20.0607 17.18C19.1674 17.18 18.3674 16.9467 17.6607 16.48C16.9674 16 16.414 15.3467 16.0007 14.52C15.5874 13.68 15.3807 12.7333 15.3807 11.68C15.3807 10.6 15.5874 9.64667 16.0007 8.82C16.414 7.99333 16.9807 7.34667 17.7007 6.88C18.4207 6.4 19.2407 6.16 20.1607 6.16C20.6674 6.16 21.1274 6.23333 21.5407 6.38C21.9674 6.52667 22.3407 6.73333 22.6607 7C22.9807 7.25333 23.254 7.55333 23.4807 7.9C23.7074 8.23333 23.874 8.59333 23.9807 8.98L23.3207 8.9V6.38H26.5007V17H23.2607V14.44L23.9807 14.42C23.874 14.7933 23.7007 15.1467 23.4607 15.48C23.2207 15.8133 22.9274 16.1067 22.5807 16.36C22.234 16.6133 21.8474 16.8133 21.4207 16.96C20.994 17.1067 20.5407 17.18 20.0607 17.18ZM20.9407 14.48C21.434 14.48 21.8607 14.3667 22.2207 14.14C22.5807 13.9133 22.8607 13.5933 23.0607 13.18C23.2607 12.7533 23.3607 12.2533 23.3607 11.68C23.3607 11.1067 23.2607 10.6133 23.0607 10.2C22.8607 9.77333 22.5807 9.44667 22.2207 9.22C21.8607 8.98 21.434 8.86 20.9407 8.86C20.4607 8.86 20.0407 8.98 19.6807 9.22C19.334 9.44667 19.0607 9.77333 18.8607 10.2C18.6607 10.6133 18.5607 11.1067 18.5607 11.68C18.5607 12.2533 18.6607 12.7533 18.8607 13.18C19.0607 13.5933 19.334 13.9133 19.6807 14.14C20.0407 14.3667 20.4607 14.48 20.9407 14.48ZM29.3243 17V6.38H32.3643L32.4643 8.54L31.8243 8.78C31.971 8.3 32.231 7.86667 32.6043 7.48C32.991 7.08 33.451 6.76 33.9843 6.52C34.5176 6.28 35.0776 6.16 35.6643 6.16C36.4643 6.16 37.1376 6.32667 37.6843 6.66C38.231 6.98 38.6443 7.46667 38.9243 8.12C39.2043 8.76 39.3443 9.54667 39.3443 10.48V17H36.1243V10.74C36.1243 10.3133 36.0643 9.96 35.9443 9.68C35.8243 9.4 35.6376 9.19333 35.3843 9.06C35.1443 8.91333 34.8443 8.84667 34.4843 8.86C34.2043 8.86 33.9443 8.90667 33.7043 9C33.4643 9.08 33.2576 9.20667 33.0843 9.38C32.911 9.54 32.771 9.72667 32.6643 9.94C32.571 10.1533 32.5243 10.3867 32.5243 10.64V17H30.9443C30.571 17 30.251 17 29.9843 17C29.7176 17 29.4976 17 29.3243 17ZM42.0196 17V6.38H45.0596L45.1596 8.54L44.5196 8.78C44.6663 8.3 44.9263 7.86667 45.2996 7.48C45.6863 7.08 46.1463 6.76 46.6796 6.52C47.2129 6.28 47.7729 6.16 48.3596 6.16C49.1596 6.16 49.8329 6.32667 50.3796 6.66C50.9263 6.98 51.3396 7.46667 51.6196 8.12C51.8996 8.76 52.0396 9.54667 52.0396 10.48V17H48.8196V10.74C48.8196 10.3133 48.7596 9.96 48.6396 9.68C48.5196 9.4 48.3329 9.19333 48.0796 9.06C47.8396 8.91333 47.5396 8.84667 47.1796 8.86C46.8996 8.86 46.6396 8.90667 46.3996 9C46.1596 9.08 45.9529 9.20667 45.7796 9.38C45.6063 9.54 45.4663 9.72667 45.3596 9.94C45.2663 10.1533 45.2196 10.3867 45.2196 10.64V17H43.6396C43.2663 17 42.9463 17 42.6796 17C42.4129 17 42.1929 17 42.0196 17ZM54.8949 17V6.38H58.0949V17H54.8949ZM56.4949 4.28C55.8949 4.28 55.4216 4.14 55.0749 3.86C54.7416 3.56667 54.5749 3.15333 54.5749 2.62C54.5749 2.14 54.7483 1.74667 55.0949 1.44C55.4416 1.13333 55.9083 0.979999 56.4949 0.979999C57.0949 0.979999 57.5616 1.12667 57.8949 1.42C58.2283 1.7 58.3949 2.1 58.3949 2.62C58.3949 3.11333 58.2216 3.51333 57.8749 3.82C57.5416 4.12667 57.0816 4.28 56.4949 4.28ZM61.1016 21.4V6.38H64.1416L64.2616 8.76L63.6616 8.58C63.755 8.14 63.9816 7.74 64.3416 7.38C64.7016 7.02 65.155 6.73333 65.7016 6.52C66.2616 6.29333 66.8483 6.18 67.4616 6.18C68.3683 6.18 69.175 6.42 69.8816 6.9C70.5883 7.36667 71.1416 8.01333 71.5416 8.84C71.955 9.65333 72.1616 10.6 72.1616 11.68C72.1616 12.7467 71.955 13.6933 71.5416 14.52C71.1416 15.3467 70.5816 16 69.8616 16.48C69.155 16.9467 68.3416 17.18 67.4216 17.18C66.8216 17.18 66.2483 17.0667 65.7016 16.84C65.155 16.6133 64.695 16.3067 64.3216 15.92C63.9483 15.5333 63.7016 15.1133 63.5816 14.66L64.3216 14.38V21.4H61.1016ZM66.6416 14.48C67.1216 14.48 67.5416 14.3667 67.9016 14.14C68.2616 13.9 68.5416 13.5733 68.7416 13.16C68.9416 12.7467 69.0416 12.2533 69.0416 11.68C69.0416 11.12 68.9416 10.6333 68.7416 10.22C68.5416 9.79333 68.2616 9.46667 67.9016 9.24C67.555 9 67.135 8.88 66.6416 8.88C66.1483 8.88 65.7216 8.99333 65.3616 9.22C65.0016 9.44667 64.7216 9.77333 64.5216 10.2C64.3216 10.6267 64.2216 11.12 64.2216 11.68C64.2216 12.2533 64.3216 12.7467 64.5216 13.16C64.7216 13.5733 65.0016 13.9 65.3616 14.14C65.7216 14.3667 66.1483 14.48 66.6416 14.48Z" fill="#FF7E7E"/>
</svg>
